<svg width="579" height="579" viewBox="0 0 579 579" fill="none" xmlns="http://www.w3.org/2000/svg">
<rect width="578.956" height="578.956" fill="#3B3524"/>
<path d="M280.936 140.352H298.015V276.728L350.192 150.746L365.971 157.281L313.786 283.275L410.247 186.817L422.323 198.893L325.862 295.351L451.859 243.169L458.394 258.948L332.412 311.125H468.789V319.663C468.789 333.835 480.232 345.279 494.404 345.279V362.359H331.319C327.37 381.86 310.155 396.512 289.477 396.513C268.799 396.513 251.584 381.861 247.635 362.359H84.5469V345.279C98.7187 345.279 110.162 333.835 110.162 319.663V311.125H246.541L120.557 258.948L127.092 243.169L253.084 295.349L156.628 198.893L168.704 186.817L265.162 283.275L212.98 157.281L228.759 150.746L280.936 276.728V140.352ZM126.389 328.202C125.111 334.513 122.445 340.316 118.721 345.279H263.859V353.82C263.859 367.991 275.305 379.436 289.477 379.436C303.648 379.435 315.092 367.991 315.092 353.82V345.279H460.23C456.506 340.316 453.84 334.513 452.562 328.202H323.631C309.902 328.202 298.732 338.943 298.048 352.499L298.015 353.82H280.936C280.936 339.648 269.492 328.202 255.32 328.202H126.389Z" fill="#D7D09A"/>
</svg>
