<svg width="192" height="192" viewBox="0 0 192 192" fill="none" xmlns="http://www.w3.org/2000/svg">
<rect width="192" height="192" fill="#332E21"/>
<path d="M179.999 117.579C177.083 117.579 174.483 116.41 172.572 114.507C170.668 112.596 169.502 109.995 169.499 107.08V103.58H113.597L162.005 83.5317L159.328 77.0638L110.916 97.1151L147.981 60.0504L143.032 55.1014L105.967 92.1662L126.019 43.7545L119.551 41.077L99.5028 89.4852V37.0801H92.5029V89.4817L72.4516 41.0735L65.9836 43.751L86.035 92.1627L48.9702 55.1014L44.0213 60.0504L81.086 97.1151L32.6743 77.0638L29.9969 83.5317L78.405 103.58H22.4999V107.08C22.4999 109.995 21.3309 112.596 19.4269 114.507C17.516 116.41 14.9155 117.576 12 117.579V124.579H78.8495C80.47 132.57 87.5259 138.579 95.9994 138.579C104.469 138.579 111.529 132.57 113.149 124.579H179.999V117.579ZM106.499 117.579V121.079C106.499 123.995 105.33 126.595 103.426 128.506C101.515 130.41 98.9149 131.576 95.9994 131.579C93.0839 131.579 90.4834 130.41 88.5724 128.506C86.6684 126.595 85.503 123.995 85.4995 121.079V117.579H25.9789C27.5119 115.543 28.6214 113.17 29.1464 110.58H81.996C84.9115 110.58 87.5119 111.749 89.4229 113.653C91.3269 115.563 92.4924 118.164 92.4959 121.079H99.4958C99.4958 118.164 100.665 115.563 102.569 113.653C104.48 111.749 107.08 110.583 109.996 110.58H162.845C163.37 113.17 164.483 115.543 166.013 117.579H106.492H106.499Z" fill="#D7D09A"/>
</svg>
