<svg width="512" height="512" viewBox="0 0 512 512" fill="none" xmlns="http://www.w3.org/2000/svg">
<rect width="512" height="512" fill="#D7D09A"/>
<path d="M479.997 313.545C472.222 313.545 465.287 310.428 460.192 305.35C455.114 300.254 452.006 293.32 451.997 285.545V276.212H302.926L432.014 222.751L424.874 205.503L295.777 258.973L394.616 160.134L381.419 146.937L282.579 245.776L336.05 116.678L318.802 109.538L265.341 238.627V98.8799H246.674V238.618L193.204 109.529L175.956 116.669L229.427 245.767L130.587 146.937L117.39 160.134L216.229 258.973L87.1316 205.503L79.9916 222.751L209.08 276.212H59.9998V285.545C59.9998 293.32 56.8825 300.254 51.8052 305.35C46.7092 310.428 39.7746 313.536 32 313.545V332.212H210.265C214.587 353.519 233.403 369.545 255.998 369.545C278.585 369.545 297.41 353.519 301.731 332.212H479.997V313.545ZM283.998 313.545V322.878C283.998 330.653 280.881 337.587 275.804 342.683C270.708 347.761 263.773 350.869 255.998 350.878C248.224 350.878 241.289 347.761 236.193 342.683C231.116 337.587 228.008 330.653 227.999 322.878V313.545H69.2771C73.365 308.113 76.3237 301.785 77.7237 294.878H218.656C226.431 294.878 233.365 297.996 238.461 303.073C243.538 308.169 246.646 315.104 246.656 322.878H265.322C265.322 315.104 268.44 308.169 273.517 303.073C278.613 297.996 285.547 294.888 293.322 294.878H434.254C435.654 301.785 438.622 308.113 442.701 313.545H283.979H283.998Z" fill="#332E21"/>
</svg>
