<svg viewBox="0 0 66.2171 31.2461" fill="none" xmlns="http://www.w3.org/2000/svg">
<path d="M19.0708 0L0 31.2461H47.1463L66.2171 0H19.0708ZM44.9425 19.713L41.6705 19.6725L43.7391 22.2076L40.555 21.4437L42.0085 24.3776L39.0745 22.9242L39.8384 26.1083L37.3033 24.0396L37.3439 27.3116L35.3293 24.7292L34.633 27.9268L33.2471 24.959L31.8613 27.9268L31.165 24.7292L29.1572 27.3116L29.1977 24.0396L26.6626 26.1083L27.4265 22.9242L24.4926 24.3776L25.946 21.4437L22.7619 22.2076L24.8306 19.6725L21.5586 19.713L24.141 17.6985L20.9434 17.0021L23.9112 15.6163L20.9434 14.2304L24.141 13.5341L21.5586 11.5263L24.8306 11.5669L22.7619 9.03176L25.946 9.79567L24.4926 6.8617L27.4265 8.31517L26.6626 5.13107L29.1977 7.19972L29.1572 3.92773L31.1717 6.51017L31.868 3.31255L33.2539 6.28032L34.6398 3.31255L35.3361 6.51017L37.3439 3.92773L37.3033 7.19972L39.8384 5.13107L39.0745 8.31517L42.0085 6.8617L40.555 9.79567L43.7391 9.03176L41.6705 11.5669L44.9425 11.5263L42.36 13.5409L45.5576 14.2372L42.5899 15.623L45.5576 17.0089L42.36 17.7052L44.9425 19.713Z" fill="#332E21"/>
</svg>
