<svg viewBox="0 0 128.387 74.8231" fill="none" xmlns="http://www.w3.org/2000/svg">
<g id="ChNK__COMBINATION-MARK__arc">
<path d="M8.5326 66.3799L6.71188 65.5754L6.66444 65.621C6.84688 66.0023 7.00195 66.5623 7.05121 67.1005C7.22635 68.9979 6.00949 70.4282 4.06106 70.6088C2.55777 70.7475 1.40659 69.9447 1.29713 68.7516C1.20226 67.7154 1.82073 66.7156 2.36622 66.1646L2.36074 66.1136L0.213452 66.3124L0.166018 66.358C0.218925 66.8141 -0.0237169 67.5895 0.0638531 68.5418C0.286427 70.9481 2.1035 72.6302 4.85101 72.3766C7.17344 72.1614 8.95951 70.0943 8.6968 67.2629C8.66396 66.9108 8.61835 66.6317 8.53078 66.3781L8.5326 66.3799Z" fill="#D7D09A"/>
<path d="M7.67515 54.8663L7.62407 55.4665L1.8335 54.9885L0.664073 54.3591L0.622112 54.3554L0.415958 56.8567L1.58538 57.4861L1.62734 57.4897L1.68025 56.8567L3.61956 57.0172L3.35868 60.1825L1.41936 60.022L0.248115 59.3925L0.206154 59.3889L0 61.8901L1.17125 62.5195L1.21139 62.5232L1.26429 61.8901L7.05486 62.3681L8.22429 62.9975L8.26625 63.0012L8.47058 60.531L7.29933 59.9016L7.25919 59.8979L7.20993 60.4999L4.61385 60.2865L4.87656 57.1212L7.47082 57.3347L8.64024 57.9641L8.6822 57.9677L8.88653 55.4975L7.71528 54.8681L7.67515 54.8663Z" fill="#D7D09A"/>
<path d="M9.6473 46.7058L8.78437 50.0864L3.10509 48.6379L2.10168 47.857L2.05972 47.8461L1.44673 50.2561L2.49575 51.0716L2.53588 51.0825L2.69278 50.4677L8.3228 51.9017L9.37182 52.7172L9.41195 52.7281L10.7364 47.5323L9.68561 46.7168L9.6473 46.7058Z" fill="#D7D09A"/>
<path d="M11.5483 41.7344L11.3275 42.2963L5.91645 40.1782L4.9769 39.2405L4.93858 39.2241L4.02275 41.5611L4.96413 42.5007L5.00244 42.5152L5.23413 41.9242L10.6434 44.0423L11.5848 44.98L11.6231 44.9964L12.528 42.6886L11.5866 41.749L11.5483 41.7344Z" fill="#D7D09A"/>
<path d="M15.4069 34.1286L13.681 37.303L11.2929 36.0041L12.5918 33.6159L11.7745 32.5669L11.738 32.5487L10.1855 35.402L8.57639 34.5263L10.0085 31.8919L9.1912 30.8429L9.15472 30.8228L6.52397 35.6629L7.33946 36.7119L7.37595 36.7302L7.68062 36.1737L12.7852 38.9486L13.6007 39.9976L13.6372 40.0177L16.2607 35.1959L15.4433 34.1487L15.4069 34.1286Z" fill="#D7D09A"/>
<path d="M19.7762 25.7602C18.6561 24.8954 17.5906 25.4391 16.901 26.0922C17.1655 25.3242 17.1583 24.516 16.3756 23.9103C15.4525 23.1969 14.4892 23.3885 13.3252 24.8973L11.3713 27.4277L12.0391 28.6409L12.0938 28.6555L12.4568 28.1337L17.0305 31.6657L17.6709 32.8296L17.7037 32.8552L20.0006 29.8796C21.1846 28.3471 21.1098 26.791 19.7744 25.7602H19.7762ZM15.4926 27.1868L15.0475 27.7633L13.5551 26.6122C13.6682 26.4498 13.7886 26.2929 13.8908 26.1615C14.502 25.3698 14.9635 25.2658 15.4415 25.6361C15.9104 25.9992 15.9961 26.5374 15.4926 27.1887V27.1868ZM18.7126 29.5421L18.2036 30.2007L16.0454 28.5332L16.5288 27.9075C17.14 27.1157 17.8442 26.7143 18.6853 27.3638C19.3274 27.86 19.4515 28.5861 18.7126 29.5421Z" fill="#D7D09A"/>
<path d="M25.2785 15.5017L28.2213 19.6686L28.3289 21.0843L28.3544 21.1171L30.1733 19.8328L30.0657 18.4171L30.042 18.3824L29.1827 18.9899L27.0208 15.9286L33.6907 17.5377L33.7254 17.514L34.0757 15.8265L34.0501 15.7918L33.3769 15.6313L30.2098 11.1506L30.1022 9.73487L30.0785 9.70021L28.2596 10.9864L28.3672 12.4021L28.3909 12.4368L29.2502 11.8293L31.6347 15.2043L24.4685 13.473L24.4357 13.4967L24.027 15.1733L24.0507 15.208L25.2785 15.5017Z" fill="#D7D09A"/>
<path d="M34.8912 6.41268L37.2994 4.74703L37.3048 4.71054L36.5605 3.72355L36.5185 3.73267L34.28 5.68658L34.2745 5.72307L34.8492 6.41998L34.8912 6.41268Z" fill="#D7D09A"/>
<path d="M36.3197 6.32511L35.4038 7.81563L35.4221 7.85394L36.6426 8.78072L36.4912 15.5163L36.5094 15.5546L39.0033 14.3998L38.9741 13.0717L38.9559 13.0333L37.6241 13.65L37.6423 12.8965L40.3917 11.6231L41.4571 12.4386L41.4717 13.2121L41.4899 13.2504L43.5314 12.3054L43.5022 10.9773L43.484 10.939L42.8509 11.2327L36.3616 6.30869L36.3233 6.32693L36.3197 6.32511ZM37.7025 9.58527L39.4375 10.9043L37.6606 11.7271L37.7025 9.58527Z" fill="#D7D09A"/>
<path d="M46.8262 1.88276L46.8664 1.87181L48.2128 0.576503L48.2073 0.556435L47.6271 0L47.6071 0.00547313L46.5672 0.831915L45.2536 0.633058L45.2336 0.638531L45.0073 1.40842L45.0128 1.42849L46.8262 1.88276Z" fill="#D7D09A"/>
<path d="M47.452 7.46899L47.8242 7.48906C48.8732 7.54379 49.3585 7.79191 49.4825 8.25348C49.6887 9.02884 49.2928 9.52142 48.5776 9.71115C47.5724 9.97933 46.6912 9.66554 45.8228 9.19485L45.7699 9.24046L46.2899 11.1925L46.3428 11.2327C46.7569 11.0904 47.5086 11.2455 48.5959 10.9554C50.1849 10.5321 51.6098 9.24776 51.1099 7.36683C50.88 6.50208 50.3838 5.77232 48.4499 5.67198L48.0778 5.65192C47.0069 5.59354 46.6912 5.4184 46.5325 4.82547C46.3683 4.21248 46.6839 3.69618 47.2878 3.53564C48.2237 3.2857 49.0356 3.58672 49.8438 4.03005L49.8948 4.01728L49.384 2.09621L49.3311 2.05607C48.9006 2.18195 48.1161 2.06702 47.2112 2.30784C45.4507 2.7767 44.4983 4.17235 44.8924 5.65192C45.2007 6.80857 45.9268 7.39055 47.4557 7.46899H47.452Z" fill="#D7D09A"/>
<path d="M64.1359 7.58211V7.54015L63.5321 7.52555L63.6105 4.44418L66.0114 7.95428L65.6137 8.79714V8.8391L68.0912 8.90295L68.6531 7.69887L68.6549 7.6569L67.9671 7.63866L65.4276 3.91693L68.6677 0.667722L68.6494 0.5838L65.3181 0.498055L64.7544 1.70214V1.7441L66.1281 1.77877L63.616 4.24532L63.6817 1.71674L64.2436 0.510825L64.2454 0.470689L61.7369 0.405011L61.1731 1.61092V1.65106L61.808 1.66748L61.6584 7.47629L61.0965 8.6822L61.0947 8.72234L63.5722 8.78619L64.1359 7.58211Z" fill="#D7D09A"/>
<path d="M73.9675 8.60558L73.9766 8.56544L72.5408 8.26442L73.006 7.6715L75.9706 8.29361L76.3392 9.58345L75.8885 10.2129L75.8794 10.253L78.0796 10.7146L78.8495 9.63088L78.8586 9.59074L78.1763 9.44844L75.9141 1.62369L75.874 1.61457L74.2484 2.26223L74.2393 2.30236L74.6644 3.77463L70.5194 9.08539L70.5103 9.12553L73.1994 9.68926L73.9693 8.60558H73.9675ZM75.0311 5.0517L75.635 7.14608L73.7194 6.74472L75.0311 5.0517Z" fill="#D7D09A"/>
<path d="M87.3912 4.49891L89.2466 4.27634L89.2557 4.25809L89.128 3.46449L89.1098 3.45537L87.7817 3.48821L86.853 2.53588L86.8348 2.52676L86.189 3.00657L86.1817 3.02481L87.3529 4.48249L87.3912 4.49891Z" fill="#D7D09A"/>
<path d="M80.506 11.4498L86.7618 14.0039L88.0097 12.7925L88.0261 12.7542L87.6576 12.3328L87.6193 12.3182L86.9096 12.6794L83.1788 11.1816L83.197 11.1652L85.7402 9.53784L87.8127 10.3825L88.765 9.45574L88.7796 9.41743L87.0355 8.70592L90.3704 6.56775L90.3631 6.47471L84.4631 4.06836L83.2152 5.27974L83.1988 5.31806L83.5673 5.73766L83.6057 5.75408L84.3153 5.39103L87.7087 6.75201L85.5796 8.11117L83.5637 7.28838L82.6114 8.21699L82.5968 8.2553L84.2843 8.94309L80.4987 11.3567L80.506 11.4498Z" fill="#D7D09A"/>
<path d="M90.3376 14.4071L89.2357 15.1514L89.2138 15.1861L91.5782 16.6876C94.5391 18.5685 96.8306 17.815 98.0584 15.883C99.2479 14.0112 99.0125 11.5446 96.2449 9.78595L94.0393 8.38483L92.8917 9.16019L92.8808 9.21492C93.0213 9.266 93.2311 9.3627 93.4719 9.46669L90.3358 14.4053L90.3376 14.4071ZM95.1339 10.3497C97.19 11.7545 97.2392 13.5606 96.3179 15.011C95.4805 16.33 93.8422 16.7934 92.1893 15.7444L91.8464 15.5273L95.1339 10.3515V10.3497Z" fill="#D7D09A"/>
<path d="M107.078 23.8847C108.782 22.1005 108.698 19.4734 106.907 17.7639C105.325 16.2552 102.833 15.8046 100.749 17.9883C99.0453 19.7726 99.1439 22.3997 100.928 24.1018C102.517 25.6179 104.995 26.0685 107.078 23.8847ZM102.596 18.8586C103.63 17.7749 105.004 17.618 105.839 18.4152C106.93 19.457 106.72 21.4583 105.239 23.009C104.205 24.0927 102.838 24.2569 101.995 23.4524C100.91 22.4179 101.114 20.4093 102.596 18.8586Z" fill="#D7D09A"/>
<path d="M114.268 26.4498L112.759 24.3153L111.404 24.5981L111.373 24.6455C111.482 24.7458 111.641 24.9155 111.825 25.1034L107.045 28.4822L105.744 28.7522L105.71 28.7759L107.326 31.0636C109.353 33.9297 111.758 34.1031 113.629 32.7804C115.441 31.4997 116.162 29.128 114.268 26.4498ZM112.351 31.3136C111.075 32.2148 109.382 32.0214 108.251 30.4233L108.018 30.0913L113.027 26.5501C114.396 28.6299 113.755 30.3211 112.352 31.3136H112.351Z" fill="#D7D09A"/>
<path d="M115.124 42.1814L113.564 38.9231L116.014 37.7482L117.189 40.2001L118.517 40.1527L118.553 40.1344L117.15 37.2045L118.803 36.4127L120.099 39.1164L121.427 39.069L121.465 39.0508L119.084 34.0848L117.756 34.1304L117.72 34.1487L117.993 34.7215L112.754 37.2319L111.426 37.2793L111.387 37.2975L113.759 42.2471L115.087 42.1996L115.124 42.1814Z" fill="#D7D09A"/>
<path d="M117.933 51.7138L118.305 51.13L123.58 49.6139L124.951 49.9788L124.992 49.966L124.375 47.826L123.003 47.4611L122.963 47.4739L123.253 48.4828L119.281 49.6248L123.273 43.4293L123.262 43.3891L121.812 42.4532L121.772 42.4642L121.093 43.526L116.189 44.9362L114.817 44.5731L114.777 44.5841L115.394 46.7241L116.766 47.089L116.806 47.078L116.514 46.0673L120.117 45.0311L116.402 50.7997L116.413 50.8399L117.893 51.7265L117.933 51.7138Z" fill="#D7D09A"/>
<path d="M118.895 57.0063L118.792 55.9591L122.521 55.5924L117.825 60.5948L117.829 60.6368L119.124 61.7752L119.165 61.7697L119.639 61.2644L125.099 60.7262L126.382 61.3319L126.424 61.3282L126.205 59.1098L124.922 58.5041L124.88 58.5096L124.982 59.5549L120.87 59.9599L125.917 54.589L125.913 54.547L124.656 53.363L124.614 53.3666L123.753 54.2898L118.677 54.7897L117.393 54.1821L117.351 54.1876L117.57 56.4042L118.854 57.0099L118.895 57.0063Z" fill="#D7D09A"/>
<path d="M125.67 64.707L121.035 66.8451L119.197 66.7028L118.024 66.0807L117.982 66.0771L117.793 68.5473L118.966 69.1712L119.008 69.1749L119.053 68.571L120.963 68.7188L125.827 72.1449L125.867 72.1486L126.057 69.7094L124.91 68.7425L124.868 68.7388L124.758 70.1618L122.222 68.3685L126.491 66.3909L126.493 66.3489L125.712 64.7106L125.67 64.707Z" fill="#D7D09A"/>
<path d="M127.777 67.0422L127.746 67.0203L126.858 67.1808L126.843 67.2209L127.121 70.1363L127.15 70.1582L128.374 69.9922L128.387 69.952L127.777 67.0422Z" fill="#D7D09A"/>
<path d="M101.519 58.4074V56.583H72.3803L97.6114 46.133L96.2157 42.7615L70.981 53.2134L90.2993 33.8951L87.7196 31.3154L68.3995 50.6355L78.8513 25.4008L75.4799 24.0051L65.0299 49.2381V21.9199H61.3811V49.2344L50.9311 24.0015L47.5596 25.3971L58.0115 50.6319L38.6914 31.3118L36.1117 33.8914L55.43 53.2097L30.1952 42.7579L28.7996 46.1293L54.0307 56.5794H24.8918V58.4037C24.8918 59.9234 24.2824 61.279 23.29 62.2751C22.2939 63.2675 20.9384 63.875 19.4187 63.8769V67.5256H54.2642C55.1089 71.6907 58.7869 74.8231 63.2037 74.8231C67.6187 74.8231 71.2984 71.6907 72.1431 67.5256H106.989V63.8769C105.469 63.8769 104.113 63.2675 103.117 62.2751C102.125 61.279 101.517 59.9234 101.516 58.4037L101.519 58.4074ZM68.6804 63.8805V65.7049C68.6804 67.2246 68.0711 68.5801 67.0786 69.5762C66.0825 70.5687 64.727 71.1762 63.2073 71.178C61.6876 71.178 60.3321 70.5687 59.336 69.5762C58.3435 68.5801 57.736 67.2246 57.7342 65.7049V63.8805H26.7089C27.5079 62.8187 28.0863 61.5818 28.3599 60.2318H55.908C57.4277 60.2318 58.7832 60.8411 59.7793 61.8336C60.7718 62.8297 61.3793 64.1852 61.3811 65.7049H65.0299C65.0299 64.1852 65.6392 62.8297 66.6317 61.8336C67.6278 60.8411 68.9833 60.2336 70.503 60.2318H98.0511C98.3247 61.5818 98.9049 62.8187 99.7021 63.8805H68.6768H68.6804Z" fill="#D7D09A"/>
</g>
</svg>
