<svg xmlns="http://www.w3.org/2000/svg" width="120" height="120" viewBox="0 0 120 120">
  <rect width="120" height="120" rx="8" fill="#ffffff" stroke="#332e21" stroke-width="2"/>
  <rect x="15" y="15" width="30" height="30" rx="4" fill="#332e21"/>
  <rect x="75" y="15" width="30" height="30" rx="4" fill="#332e21"/>
  <rect x="15" y="75" width="30" height="30" rx="4" fill="#332e21"/>
  <rect x="20" y="20" width="20" height="20" rx="2" fill="#ffffff"/>
  <rect x="80" y="20" width="20" height="20" rx="2" fill="#ffffff"/>
  <rect x="20" y="80" width="20" height="20" rx="2" fill="#ffffff"/>
  <rect x="24" y="24" width="12" height="12" rx="1" fill="#332e21"/>
  <rect x="84" y="24" width="12" height="12" rx="1" fill="#332e21"/>
  <rect x="24" y="84" width="12" height="12" rx="1" fill="#332e21"/>
  <rect x="52" y="18" width="6" height="6" fill="#332e21"/>
  <rect x="52" y="30" width="6" height="6" fill="#332e21"/>
  <rect x="58" y="24" width="6" height="6" fill="#332e21"/>
  <rect x="18" y="52" width="6" height="6" fill="#332e21"/>
  <rect x="30" y="52" width="6" height="6" fill="#332e21"/>
  <rect x="24" y="58" width="6" height="6" fill="#332e21"/>
  <rect x="52" y="52" width="8" height="8" rx="1" fill="#332e21"/>
  <rect x="66" y="52" width="6" height="6" fill="#332e21"/>
  <rect x="52" y="66" width="6" height="6" fill="#332e21"/>
  <rect x="78" y="54" width="6" height="6" fill="#332e21"/>
  <rect x="90" y="54" width="6" height="6" fill="#332e21"/>
  <rect x="84" y="60" width="6" height="6" fill="#332e21"/>
  <rect x="78" y="78" width="6" height="6" fill="#332e21"/>
  <rect x="90" y="78" width="6" height="6" fill="#332e21"/>
  <rect x="84" y="84" width="6" height="6" fill="#332e21"/>
  <rect x="96" y="90" width="6" height="6" fill="#332e21"/>
  <rect x="66" y="90" width="6" height="6" fill="#332e21"/>
  <rect x="54" y="96" width="6" height="6" fill="#332e21"/>
  <rect x="66" y="78" width="6" height="6" fill="#332e21"/>
  <rect x="96" y="66" width="6" height="6" fill="#332e21"/>
</svg>